<?xml version="1.0" encoding="utf-8"?>
<svg xmlns="http://www.w3.org/2000/svg" width="19" height="19" class="segno"><path class="qrline" stroke="#000" d="M2 2.5h7m1 0h1m1 0h1m1 0h1m1 0h1m-15 1h1m5 0h1m-7 1h1m1 0h3m1 0h1m1 0h7m-15 1h1m1 0h3m1 0h1m1 0h1m1 0h2m1 0h2m-15 1h1m1 0h3m1 0h1m4 0h4m-15 1h1m5 0h1m1 0h4m1 0h1m-14 1h7m2 0h1m2 0h2m-5 1h1m1 0h1m2 0h1m-15 1h6m4 0h1m2 0h1m-8 1h7m-13 1h2m2 0h1m2 0h1m1 0h4m1 0h1m-13 1h3m2 0h1m1 0h3m1 0h1m-14 1h1m1 0h2m1 0h2m2 0h4m1 0h1m-14 1h3m1 0h1m3 0h2m1 0h2m-14 1h2m1 0h12"/></svg>
